<?xml version="1.0" standalone="no"?>
<!DOCTYPE svg PUBLIC "-//W3C//DTD SVG 20010904//EN"
 "http://www.w3.org/TR/2001/REC-SVG-20010904/DTD/svg10.dtd">
<svg version="1.0" xmlns="http://www.w3.org/2000/svg"
 width="512.000000pt" height="512.000000pt" viewBox="0 0 512.000000 512.000000"
 preserveAspectRatio="xMidYMid meet">

<g transform="translate(0.000000,512.000000) scale(0.100000,-0.100000)"
fill="#000000" stroke="none">
<path d="M2494 4938 c-138 -103 -246 -269 -295 -453 -30 -112 -30 -298 0 -410
42 -156 129 -306 235 -403 l56 -51 0 -177 0 -177 -61 67 c-149 162 -336 247
-549 247 -54 1 -126 -6 -167 -16 -115 -26 -129 -58 -99 -226 63 -350 379 -621
726 -623 52 0 107 3 123 7 l27 7 0 -220 0 -221 -51 61 c-173 208 -462 306
-726 245 -102 -23 -117 -44 -109 -147 24 -325 244 -591 563 -680 80 -22 238
-30 296 -15 l27 7 0 -219 0 -219 -62 65 c-114 119 -224 185 -374 224 -155 40
-389 19 -435 -39 -19 -24 -21 -35 -15 -109 15 -206 125 -399 305 -537 149
-114 351 -172 519 -148 l62 9 0 -294 0 -294 25 -24 c31 -32 59 -32 90 0 l25
24 0 294 0 294 63 -9 c169 -24 368 33 518 148 180 138 290 331 305 537 8 109
-6 128 -109 152 -252 58 -522 -26 -712 -221 l-65 -67 0 217 0 216 28 -7 c58
-15 205 -7 286 16 328 92 548 352 572 679 6 69 4 80 -15 104 -28 35 -133 59
-257 59 -203 -1 -365 -71 -526 -231 l-88 -87 0 219 0 218 28 -7 c58 -15 205
-7 286 16 322 90 545 356 572 680 8 102 -7 123 -109 146 -265 61 -565 -41
-739 -251 l-38 -46 0 177 0 176 56 51 c106 97 193 247 235 403 17 62 22 109
22 205 0 144 -21 237 -78 359 -80 169 -225 321 -305 321 -23 0 -49 -8 -66 -22z
m134 -183 c66 -72 118 -164 154 -270 19 -59 23 -91 23 -200 0 -117 -3 -139
-29 -219 -33 -99 -99 -208 -169 -275 l-45 -43 -35 26 c-84 64 -173 220 -203
354 -13 56 -15 103 -11 186 6 123 26 198 84 308 33 63 144 198 163 198 5 0 35
-29 68 -65z m-630 -1321 c128 -26 210 -70 306 -166 67 -67 91 -99 124 -168 41
-87 70 -194 59 -223 -8 -22 -117 -32 -206 -18 -247 39 -445 205 -517 437 -14
45 -24 94 -22 110 2 24 9 30 38 35 65 12 140 9 218 -7z m1372 1 c32 -20 -21
-194 -91 -299 -81 -121 -187 -202 -329 -250 -85 -28 -204 -41 -270 -29 -40 7
-45 12 -48 37 -9 76 74 256 163 355 78 86 230 169 348 191 53 9 209 6 227 -5z
m-1372 -971 c42 -8 113 -33 158 -54 142 -68 263 -217 314 -387 12 -39 20 -84
18 -100 -3 -24 -9 -29 -48 -36 -150 -27 -365 42 -503 163 -98 87 -205 298
-195 386 2 24 9 30 38 35 64 12 140 9 218 -7z m1372 1 c32 -20 -21 -194 -91
-299 -81 -121 -187 -202 -329 -250 -85 -28 -204 -41 -270 -29 -54 10 -59 24
-36 114 25 98 75 185 151 267 106 114 217 178 348 202 53 9 209 6 227 -5z
m-1372 -981 c42 -8 113 -33 158 -54 146 -70 277 -234 320 -399 28 -111 20
-118 -131 -120 -74 -1 -104 4 -171 27 -158 55 -301 178 -372 320 -39 79 -67
174 -60 210 6 32 136 41 256 16z m1375 -3 c18 -18 -10 -130 -54 -220 -72 -146
-214 -267 -378 -324 -76 -26 -94 -29 -187 -25 -63 2 -108 8 -116 16 -19 19 6
126 51 217 87 175 266 311 454 345 63 11 216 5 230 -9z"/>
<path d="M684 3882 c-99 -72 -185 -205 -221 -342 -27 -103 -22 -265 10 -365
34 -103 83 -185 158 -260 l59 -61 0 -110 0 -110 -56 53 c-110 104 -305 173
-449 158 -181 -19 -207 -54 -170 -228 33 -159 178 -342 327 -412 90 -43 212
-69 291 -61 l57 6 0 -137 0 -138 -30 37 c-39 47 -148 119 -225 148 -105 40
-285 39 -387 -1 -38 -15 -52 -57 -44 -130 24 -207 151 -393 327 -478 101 -48
228 -76 305 -67 l54 6 0 -133 0 -133 -56 53 c-61 58 -167 114 -259 138 -73 19
-206 21 -281 4 -94 -21 -110 -65 -79 -212 33 -159 178 -342 327 -412 90 -43
212 -69 291 -61 l57 6 0 -221 0 -220 25 -24 c31 -32 59 -32 90 0 l25 24 0 220
0 221 58 -6 c78 -8 200 18 290 61 149 70 294 253 327 412 31 147 15 191 -79
212 -75 17 -208 15 -281 -4 -92 -24 -198 -80 -259 -138 l-56 -53 0 131 0 130
93 1 c205 2 401 113 506 288 68 113 110 291 82 344 -30 56 -245 90 -369 58
-76 -19 -164 -61 -200 -95 -15 -14 -46 -43 -69 -64 l-43 -40 0 137 0 136 58
-6 c78 -8 200 18 290 61 149 70 294 253 327 412 37 174 11 209 -170 228 -144
15 -339 -54 -449 -158 l-56 -53 0 110 0 110 59 61 c75 75 124 157 158 260 32
100 37 262 10 365 -36 137 -122 270 -221 342 -52 37 -100 37 -152 0z m124
-156 c116 -126 162 -335 112 -500 -25 -81 -76 -169 -124 -215 l-36 -35 -36 35
c-20 18 -51 60 -69 91 -95 161 -100 349 -15 519 29 57 103 149 120 149 4 0 26
-20 48 -44z m-435 -1037 c112 -37 182 -92 247 -191 39 -60 77 -175 67 -202 -5
-13 -23 -16 -82 -16 -210 0 -405 150 -456 353 -18 72 -12 77 81 77 55 0 100
-7 143 -21z m1003 6 c4 -9 1 -36 -5 -62 -51 -203 -246 -353 -456 -353 -88 0
-93 6 -75 77 53 212 231 352 448 353 65 0 84 -3 88 -15z m-979 -766 c73 -24
126 -60 176 -121 76 -93 139 -258 106 -279 -42 -26 -206 2 -301 53 -112 60
-227 219 -231 321 -2 42 -2 42 38 48 58 9 141 0 212 -22z m972 15 c10 -3 12
-15 7 -46 -17 -103 -118 -249 -211 -303 -88 -52 -244 -88 -310 -71 -26 7 -27
9 -21 54 8 59 56 163 98 211 41 48 123 109 176 133 68 30 199 41 261 22z
m-1027 -763 c103 -27 165 -60 219 -118 59 -63 94 -123 115 -200 24 -88 20 -93
-71 -93 -213 0 -409 155 -457 360 -10 43 -9 53 3 61 24 15 111 10 191 -10z
m1027 10 c12 -8 13 -18 3 -61 -48 -205 -244 -360 -457 -360 -88 0 -93 6 -75
77 44 176 171 300 350 339 66 15 160 17 179 5z"/>
<path d="M4284 3882 c-99 -72 -185 -205 -221 -342 -27 -103 -22 -265 10 -365
34 -103 83 -185 158 -260 l59 -61 0 -110 0 -110 -56 53 c-110 104 -305 173
-449 158 -181 -19 -207 -54 -170 -228 33 -159 178 -342 327 -412 90 -43 212
-69 291 -61 l57 6 0 -136 0 -137 -42 40 c-24 21 -55 50 -70 64 -36 34 -124 76
-200 95 -124 32 -339 -2 -369 -58 -16 -31 -4 -144 25 -223 57 -156 163 -279
297 -344 101 -48 228 -76 305 -67 l54 6 0 -133 0 -133 -56 53 c-61 58 -167
114 -259 138 -73 19 -206 21 -281 4 -94 -21 -110 -65 -79 -212 33 -159 178
-342 327 -412 90 -43 212 -69 291 -61 l57 6 0 -221 0 -220 25 -24 c31 -32 59
-32 90 0 l25 24 0 220 0 221 58 -6 c78 -8 200 18 290 61 149 70 294 253 327
412 31 147 15 191 -79 212 -75 17 -208 15 -281 -4 -92 -24 -198 -80 -259 -138
l-56 -53 0 131 0 130 93 1 c205 2 401 113 506 288 68 113 110 291 82 344 -30
56 -245 90 -369 58 -76 -19 -164 -61 -200 -95 -15 -14 -46 -43 -69 -64 l-43
-40 0 137 0 136 58 -6 c78 -8 200 18 290 61 149 70 294 253 327 412 37 174 11
209 -170 228 -144 15 -339 -54 -449 -158 l-56 -53 0 110 0 110 59 61 c75 75
124 157 158 260 32 100 37 262 10 365 -36 137 -122 270 -221 342 -52 37 -100
37 -152 0z m124 -156 c116 -126 162 -335 112 -500 -25 -81 -76 -169 -124 -215
l-36 -35 -36 35 c-20 18 -51 60 -69 91 -95 161 -100 349 -15 519 29 57 103
149 120 149 4 0 26 -20 48 -44z m-435 -1037 c112 -37 182 -92 247 -191 39 -60
77 -175 67 -202 -5 -13 -23 -16 -82 -16 -210 0 -405 150 -456 353 -18 72 -12
77 81 77 55 0 100 -7 143 -21z m1003 6 c4 -9 1 -36 -5 -62 -51 -203 -246 -353
-456 -353 -88 0 -93 6 -75 77 53 212 231 352 448 353 65 0 84 -3 88 -15z
m-979 -766 c73 -24 126 -60 176 -121 76 -93 139 -258 106 -279 -42 -26 -206 2
-301 53 -112 60 -227 219 -231 321 -2 42 -2 42 38 48 58 9 141 0 212 -22z
m972 15 c10 -3 12 -15 7 -46 -17 -103 -118 -249 -211 -303 -88 -52 -244 -88
-310 -71 -26 7 -27 9 -21 54 8 59 56 163 98 211 41 48 123 109 176 133 68 30
199 41 261 22z m-1027 -763 c103 -27 165 -60 219 -118 59 -63 94 -123 115
-200 24 -88 20 -93 -71 -93 -213 0 -409 155 -457 360 -10 43 -9 53 3 61 24 15
111 10 191 -10z m1027 10 c12 -8 13 -18 3 -61 -48 -205 -244 -360 -457 -360
-88 0 -93 6 -75 77 44 176 171 300 350 339 66 15 160 17 179 5z"/>
</g>
</svg>
